<?xml version="1.0" encoding="UTF-8" standalone="no"?>
<!DOCTYPE svg PUBLIC "-//W3C//DTD SVG 1.1//EN"
"http://www.w3.org/Graphics/SVG/1.1/DTD/svg11.dtd">


<!-- Page 1 -->
<svg x="0" y="0" width="769" height="928" viewBox="0 0 769 928" version="1.1" xmlns="http://www.w3.org/2000/svg" xmlns:xlink="http://www.w3.org/1999/xlink"
style="display: block;margin-left: auto;margin-right: auto;">
<defs>
<clipPath id="c_1"><path d="M0,0H769V928H0Z"/></clipPath>
<clipPath id="c0"><path d="M-84,1028.5V-57.8H850.9V1028.5Z"/></clipPath>

<style type="text/css"><![CDATA[
text { white-space: pre; }
path, image { pointer-events: none; }
text::-moz-selection {
	color: transparent;
	background: rgba(0, 106, 173, 0.4);
}
text::selection {
	color: transparent;
	background: rgba(0, 106, 173, 0.4);
}

.s1{
font-size: 267.14px;
font-family: Arial-Black_9;
fill: TRANSPARENT;
}
.s2{
font-size: 142.48px;
font-family: Arial-Black_9;
fill: TRANSPARENT;
}

.g0{
fill: #7030A0;
}
.g1{
fill: none;
stroke: #7030A0;
stroke-width: 40.071;
stroke-linecap: butt;
stroke-linejoin: miter;
stroke-miterlimit: 8;
}
.g2{
fill: none;
stroke: #7030A0;
stroke-width: 80.142;
stroke-linecap: butt;
stroke-linejoin: miter;
stroke-miterlimit: 8;
}

]]></style>

</defs>
<g clip-path="url(#c_1)">
<path d="M0,0
L0,928
L769,928
L769,0 Z " 
fill="#FFFFFF" stroke="none"/>
<path fill-rule="evenodd" d="M24.9,184.7C24.9,96.2,96.7,24.4,185.2,24.4c88.5,0,160.3,71.8,160.3,160.3C345.5,273.3,273.7,345,185.2,345C96.7,345,24.9,273.3,24.9,184.7Z" class="g0"/>
<path d="M24.9,184.7C24.9,96.2,96.7,24.4,185.2,24.4c88.5,0,160.3,71.8,160.3,160.3C345.5,273.3,273.7,345,185.2,345C96.7,345,24.9,273.3,24.9,184.7Z" class="g1"/>
<g clip-path="url(#c0)">
<g fill="#FBD050" >
<use xlink:href="#f0_5" transform="matrix(174.9,0,0,174.9,79.5,271.6)" />
</g>
</g>
<text x="79" y="271" class="s1">C</text>
<path fill-rule="evenodd" d="M24.9,589.9c0,-88.5,71.8,-160.3,160.3,-160.3c88.5,0,160.3,71.8,160.3,160.3c0,88.5,-71.8,160.3,-160.3,160.3C96.7,750.2,24.9,678.4,24.9,589.9Z" class="g0"/>
<path d="M24.9,589.9c0,-88.5,71.8,-160.3,160.3,-160.3c88.5,0,160.3,71.8,160.3,160.3c0,88.5,-71.8,160.3,-160.3,160.3C96.7,750.2,24.9,678.4,24.9,589.9Z" class="g1"/>
<g clip-path="url(#c0)">
<g fill="#FBD050" >
<use xlink:href="#f0_8" transform="matrix(174.9,0,0,174.9,88,676.7)" />
</g>
</g>
<text x="88" y="676" class="s1">S</text>
<path fill-rule="evenodd" d="M425.7,589.9c0,-88.5,71.7,-160.3,160.2,-160.3c88.6,0,160.3,71.8,160.3,160.3c0,88.5,-71.7,160.3,-160.3,160.3c-88.5,0,-160.2,-71.8,-160.2,-160.3Z" class="g0"/>
<path d="M425.7,589.9c0,-88.5,71.7,-160.3,160.2,-160.3c88.6,0,160.3,71.8,160.3,160.3c0,88.5,-71.7,160.3,-160.3,160.3c-88.5,0,-160.2,-71.8,-160.2,-160.3Z" class="g1"/>
<g clip-path="url(#c0)">
<g fill="#FBD050" >
<use xlink:href="#f0_4" transform="matrix(174.9,0,0,174.9,478.9,676.7)" />
</g>
</g>
<text x="478" y="676" class="s1">B</text>
<path d="M183,342.8l1.3,82.7m159,162.2h77.5" class="g2"/>
<g clip-path="url(#c0)">
<g fill="#7030A0" >
<use xlink:href="#f0_2" transform="matrix(93.3,0,0,93.3,45.3,908.2)" />
<use xlink:href="#f0_7" transform="matrix(93.3,0,0,93.3,151.1,908.2)" />
<use xlink:href="#f0_a" transform="matrix(93.3,0,0,93.3,254,908.2)" />
<use xlink:href="#f0_3" transform="matrix(93.3,0,0,93.3,356.6,908.2)" />
<use xlink:href="#f0_6" transform="matrix(93.3,0,0,93.3,467.3,908.2)" />
<use xlink:href="#f0_9" transform="matrix(93.3,0,0,93.3,602,908.2)" />
</g>
</g>
<text x="45" y="908" dx="0,.3,0,-8.2,-.1,.2" class="s2">@PVAMU</text>
<path fill-rule="evenodd" d="M425.7,184.7C425.7,96.2,497.4,24.4,585.9,24.4c88.6,0,160.3,71.8,160.3,160.3C746.2,273.3,674.5,345,585.9,345C497.4,345,425.7,273.3,425.7,184.7Z" class="g0"/>
<path d="M425.7,184.7C425.7,96.2,497.4,24.4,585.9,24.4c88.6,0,160.3,71.8,160.3,160.3C746.2,273.3,674.5,345,585.9,345C497.4,345,425.7,273.3,425.7,184.7Z" class="g1"/>
<g clip-path="url(#c0)">
<g fill="#FBD050" >
<use xlink:href="#f0_5" transform="matrix(174.9,0,0,174.9,478.9,271.6)" />
</g>
</g>
<text x="478" y="271" class="s1">C</text>
<path d="M343.3,182.5h78.8" class="g2"/>

</g>
<defs>
<path d="M641,-18c0,0,-178,0,-292,50c0,0,-113,52,-195,183c0,0,-82,130,-82,334c0,0,0,272,145,417c0,0,144,146,408,146c0,0,207,0,325,-83c0,0,118,-84,176,-257L827,706c0,0,-15,50,-33,73c0,0,-28,39,-69,59c0,0,-41,21,-92,21c0,0,-115,0,-176,-92c0,0,-46,-69,-46,-216c0,0,0,-182,55,-249c0,0,55,-68,155,-68c0,0,97,0,147,55c0,0,50,54,72,158l296,-90c0,0,-30,-124,-94,-208c0,0,-64,-83,-159,-126c0,0,-95,-41,-242,-41Z"
id="f0_5"
transform="scale(0.001,-0.001)"/>

<path d="M561,-18c0,0,-279,0,-386,107C175,89,67,196,53,362l321,20c0,0,11,-78,43,-119c0,0,52,-67,149,-67c0,0,73,0,112,34c0,0,39,34,39,79c0,0,0,42,-37,76c0,0,-38,34,-173,63c0,0,-223,50,-318,133c0,0,-95,83,-95,211c0,0,0,85,49,160c0,0,49,74,147,117c0,0,98,43,269,43c0,0,209,0,319,-78c0,0,110,-78,131,-248L691,768c0,0,-13,73,-54,107c0,0,-40,34,-112,34c0,0,-59,0,-89,-25c0,0,-29,-25,-29,-61c0,0,0,-26,24,-47c0,0,24,-22,114,-40c0,0,221,-48,317,-97c0,0,96,-49,139,-121c0,0,44,-73,44,-162c0,0,0,-105,-58,-194C987,162,929,73,824,27c0,0,-104,-45,-263,-45Z"
id="f0_8"
transform="scale(0.001,-0.001)"/>

<path d="M626,235c0,0,87,0,123,31c0,0,36,31,36,83c0,0,0,49,-36,78c0,0,-35,30,-124,30H454V235ZM601,665c0,0,79,0,110,27c0,0,31,27,31,79c0,0,0,47,-31,74c0,0,-31,27,-108,27H454V665ZM113,0V1094H745c0,0,158,0,243,-79c0,0,85,-78,85,-194c0,0,0,-97,-61,-166c0,0,-40,-46,-118,-73c0,0,118,-28,174,-97c0,0,55,-69,55,-174c0,0,0,-85,-39,-153c0,0,-40,-68,-108,-107C976,51,933,26,847,15C847,15,733,0,696,0Z"
id="f0_4"
transform="scale(0.001,-0.001)"/>

<path d="M476,193c0,0,48,0,86,41c0,0,39,41,68,162c0,0,29,122,29,219c0,0,0,73,-31,110c0,0,-31,37,-74,37c0,0,-50,0,-87,-37c0,0,-50,-50,-76,-158c0,0,-25,-109,-25,-199c0,0,0,-89,38,-138c0,0,28,-37,72,-37ZM597,-173c0,0,-173,0,-310,80c0,0,-137,80,-214,227c0,0,-76,147,-76,325c0,0,0,186,79,339c0,0,80,152,213,234c0,0,132,81,315,81c0,0,234,0,382,-149c0,0,147,-149,147,-386c0,0,0,-140,-57,-256c0,0,-58,-117,-169,-185c0,0,-86,-52,-161,-52c0,0,-45,0,-73,21c0,0,-28,21,-42,66c0,0,-50,-48,-91,-68c0,0,-41,-20,-89,-20c0,0,-99,0,-170,83c0,0,-72,83,-72,237c0,0,0,183,92,331c0,0,91,148,227,148c0,0,53,0,94,-25c0,0,40,-25,81,-86l14,84H862L769,266c0,0,-3,-18,-3,-26c0,0,0,-13,8,-21c0,0,7,-7,22,-7c0,0,34,0,78,30c0,0,64,45,105,130c0,0,42,85,42,205c0,0,0,197,-113,311c0,0,-114,114,-304,114c0,0,-140,0,-255,-67c0,0,-116,-67,-178,-195c0,0,-62,-128,-62,-282c0,0,0,-240,135,-381c0,0,136,-139,350,-139c0,0,104,0,201,35c0,0,96,34,185,103h153c0,0,-61,-72,-116,-112c0,0,-82,-61,-189,-99c0,0,-107,-38,-231,-38Z"
id="f0_2"
transform="scale(0.001,-0.001)"/>

<path d="M533,627c0,0,97,0,137,34c0,0,39,34,39,87c0,0,0,52,-34,87c0,0,-34,36,-129,36H450V627ZM110,0V1094H672c0,0,184,0,275,-88c0,0,91,-87,91,-248c0,0,0,-166,-99,-259c0,0,-100,-93,-304,-93H450V0Z"
id="f0_7"
transform="scale(0.001,-0.001)"/>

<path d="M417,0L4,1094H357L604,307l242,787h343L783,0Z"
id="f0_a"
transform="scale(0.001,-0.001)"/>

<path d="M714,417L593,810L473,417ZM1,0L413,1094H781L1192,0H838L785,181H400L347,0Z"
id="f0_3"
transform="scale(0.001,-0.001)"/>

<path d="M108,0V1094H553L724,428l171,666h443V0H1062V834L848,0H598L385,834V0Z"
id="f0_6"
transform="scale(0.001,-0.001)"/>

<path d="M664,-18c0,0,-80,0,-174,11c0,0,-95,10,-158,43c0,0,-63,33,-116,95c0,0,-53,61,-72,126c0,0,-31,104,-31,185v652H450V426c0,0,0,-90,49,-140c0,0,50,-50,138,-50c0,0,87,0,137,49c0,0,50,50,50,141v668h337V442c0,0,0,-97,-30,-184c0,0,-31,-86,-95,-150c0,0,-65,-65,-136,-91c0,0,-98,-35,-236,-35Z"
id="f0_9"
transform="scale(0.001,-0.001)"/>


</defs>

<!-- Any embedded fonts defined here -->
<style type="text/css" ><![CDATA[

@font-face {
	font-family: Arial-Black_9;
	src: url("fonts/Arial-Black_9.woff") format("woff");
}

]]></style>

</svg>
