<?xml version="1.0" encoding="UTF-8" standalone="no"?>
<svg
   xmlns:dc="http://purl.org/dc/elements/1.1/"
   xmlns:cc="http://creativecommons.org/ns#"
   xmlns:rdf="http://www.w3.org/1999/02/22-rdf-syntax-ns#"
   xmlns:svg="http://www.w3.org/2000/svg"
   xmlns="http://www.w3.org/2000/svg"
   version="1.1"
   id="svg3730"
   viewBox="0 0 323.00118 89.851302"
   height="25.358034mm"
   width="91.158112mm">
  <defs
     id="defs3732">
    <clipPath
       id="clipPath310"
       clipPathUnits="userSpaceOnUse">
      <path
         id="path312"
         d="m 149.76,299.188 281.668,0 0,106.892 -281.668,0 0,-106.892 z" />
    </clipPath>
  </defs>
  <metadata
     id="metadata3735">
    <rdf:RDF>
      <cc:Work
         rdf:about="">
        <dc:format>image/svg+xml</dc:format>
        <dc:type
           rdf:resource="http://purl.org/dc/dcmitype/StillImage" />
        <dc:title></dc:title>
      </cc:Work>
    </rdf:RDF>
  </metadata>
  <g
     transform="translate(-55.642263,-178.86513)"
     id="layer1">
    <g
       id="g3840"
       transform="translate(-74.087627,-80.00084)">
      <path
         d="m 246.96301,278.06665 -9.9225,0 c -0.22,0 -0.48,0.07 -0.62125,0.37 l -0.29375,0.565 c -0.185,0.3675 0.145,0.46875 0.695,0.56875 1.57375,0.2325 2.30625,0.7325 2.30625,2.0325 l 0,16.535 c 0,1.1325 -0.9525,1.63875 -1.86625,1.77 -0.2575,0.0638 -0.5475,0.1 -0.7,0.46875 l -0.21875,0.53 c -0.18,0.43625 0.185,0.5025 0.47875,0.5025 l 7.69,0 c 0.3275,0 0.51375,-0.1 0.6225,-0.23375 l 0.29375,-0.6025 c 0.14625,-0.26375 0.0725,-0.53125 -0.4025,-0.60125 -1.795,-0.33125 -2.345,-0.52875 -2.345,-1.83375 l 0,-18.2675 3.1125,0 c 2.8225,0 5.165,1.40125 5.165,4.80125 0,3.30125 -2.125,5.5 -6.1525,5.5 -0.33,0 -0.55125,0.1 -0.33,0.43375 l 0.51375,0.76625 c 4.615,0.30125 9.44875,-1.7675 9.52,-7.09875 0.0725,-4.3675 -3.6975,-6.20625 -7.545,-6.20625"
         style="fill:#4f2683;fill-opacity:1;fill-rule:nonzero;stroke:none"
         id="path314" />
      <path
         d="m 317.03126,291.02015 0,-7.93625 2.6575,0 c 2.47125,0 3.6475,1.13 3.7,3.55875 0.0275,1.33125 -0.3575,2.44125 -1.1075,3.21 -0.7375,0.75125 -1.835,1.1675 -3.085,1.1675 l -2.165,0 z m -3.31375,-6.5825 0,14.17125 c 0,1.055 -1.04125,1.315 -1.5025,1.38125 l -0.0713,0.02 c -0.21375,0.055 -0.47625,0.11875 -0.6125,0.46375 l -0.19,0.4525 c -0.0712,0.16875 -0.0712,0.31 0.002,0.42 0.085,0.1325 0.2575,0.1925 0.5275,0.1925 l 6.5925,0 c 0.29,0 0.505,-0.085 0.65375,-0.27125 l 0.24875,-0.51 c 0.0888,-0.155 0.0975,-0.3125 0.0375,-0.43875 -0.0537,-0.0987 -0.1775,-0.23125 -0.47375,-0.27 -1.56375,-0.28875 -1.89875,-0.44375 -1.89875,-1.44 l 0,-5.7825 3.06,0 3.95125,5.935 c 0.96375,1.44375 2.265,2.7775 5.2425,2.7775 l 0.405,0 c 0.37,0 0.71875,0 0.93375,-0.49125 0.165,-0.3675 0.1875,-0.62125 0.0813,-0.79 -0.0913,-0.13625 -0.2625,-0.2025 -0.52625,-0.2025 -0.27125,0 -0.46625,-0.0388 -0.74,-0.0975 -0.0788,-0.0138 -0.165,-0.0337 -0.245,-0.0462 -1.5275,-0.475 -2.82375,-2.52625 -4.785,-5.62875 -0.46375,-0.73 -0.96375,-1.52125 -1.51375,-2.36875 2.28,-1.2375 3.80375,-3.445 3.80375,-5.53375 -0.0288,-3.34375 -2.235,-5.105 -6.3825,-5.105 l -8.255,0 c -0.30875,0 -0.52875,0.13125 -0.655,0.3875 l -0.2475,0.485 c -0.0675,0.13625 -0.0762,0.25875 -0.0275,0.35875 0.0975,0.195 0.37125,0.2525 0.72,0.31875 1.3775,0.2025 1.86625,0.6275 1.86625,1.6125"
         style="fill:#4f2683;fill-opacity:1;fill-rule:nonzero;stroke:none"
         id="path316" />
      <path
         d="m 269.59826,286.64253 c 0.0275,1.33125 -0.35375,2.44124 -1.1075,3.21 -0.7375,0.75124 -1.83375,1.1675 -3.08625,1.1675 l -2.165,0 0,-7.93625 2.66,0 c 2.47,0 3.64625,1.13125 3.69875,3.55875 m 19.7275,7.00499 -6.9425,0 3.49875,-8.155 3.44375,8.155 z m 7.92375,6.31625 c -0.1925,-0.05 -0.36875,-0.0913 -0.52875,-0.1275 -1.20125,-0.28249 -1.29875,-0.30624 -1.8275,-1.51124 l -0.2275,-0.5075 c -2.045,-4.52376 -4.59125,-10.15125 -6.6725,-15.63751 -0.1225,-0.5675 -0.4625,-0.90499 -0.915,-0.90499 l -4.51875,0 c -0.355,0 -0.71375,0.0275 -0.87875,0.36875 l -0.145,0.37999 c -0.0975,0.15625 -0.12625,0.29376 -0.0787,0.41501 0.0937,0.24124 0.42,0.32375 0.83125,0.43374 0.3575,0.0925 0.76,0.195 1.0325,0.40751 0.035,0.0275 0.0713,0.0575 0.1125,0.0888 0.375,0.29125 0.885,0.69 0.41375,1.7575 l -5.60875,12.8175 c -0.77,1.73375 -1.11,2.06375 -2.13875,2.06375 -0.0987,0 -0.1875,0.0125 -0.27625,0.0225 -1.775,-0.15 -3.17,-2.39375 -5.07125,-5.48875 -0.5175,-0.84001 -1.05125,-1.70875 -1.6475,-2.62625 2.28125,-1.23875 3.80375,-3.44625 3.80375,-5.535 -0.0263,-3.34375 -2.235,-5.105 -6.38,-5.105 l -8.2575,0 c -0.3825,0 -0.56875,0.2125 -0.65375,0.3875 l -0.25125,0.485 c -0.0675,0.13624 -0.0763,0.255 -0.0238,0.35874 0.0962,0.195 0.36875,0.25251 0.72125,0.31875 1.37625,0.2025 1.86625,0.6275 1.86625,1.6125 l 0,14.17125 c 0,1.055 -1.0425,1.31501 -1.505,1.38125 l -0.07,0.0213 c -0.2125,0.0537 -0.47625,0.11751 -0.615,0.46251 l -0.1875,0.4525 c -0.0713,0.1725 -0.0713,0.31 0.004,0.42 0.0837,0.13375 0.2575,0.1925 0.5275,0.1925 l 6.59,0 c 0.29,0 0.50625,-0.085 0.655,-0.27125 l 0.25125,-0.51 c 0.0862,-0.1575 0.0937,-0.31375 0.03,-0.43875 -0.0525,-0.0987 -0.175,-0.23 -0.4675,-0.27 -1.56625,-0.29125 -1.9025,-0.44376 -1.9025,-1.44 l 0,-5.78125 3.06,0 4.00375,6.08625 c 1.235,1.84 2.84875,2.625 5.39875,2.625 l 0.46625,0 c 0.0475,0.002 0.0813,0.01 0.1325,0.01 0.10125,0 0.2025,-0.002 0.29375,-0.008 l 0.57,0 3.06,0.008 -10e-4,-0.01 0.48125,0 c 0.45,0 0.61375,-0.28875 0.69875,-0.445 0.015,-0.0238 0.0275,-0.05 0.04,-0.07 l 0.19125,-0.28625 c 0.0638,-0.10875 0.0813,-0.21125 0.0475,-0.3075 -0.075,-0.205 -0.3525,-0.30625 -0.6775,-0.4175 -0.3575,-0.1225 -0.7625,-0.2675 -0.8825,-0.5425 -0.0612,-0.14 -0.0462,-0.3125 0.045,-0.5225 l 1.50625,-3.4925 8.425,0 1.285,3.2025 c 0.15375,0.4 0.1825,0.70875 0.0825,0.92125 -0.13375,0.28125 -0.47625,0.3925 -0.7775,0.4875 -0.2575,0.09 -0.4825,0.16 -0.585,0.335 l -0.28,0.5375 c -0.1075,0.18125 -0.0825,0.31 -0.04,0.38625 0.1025,0.17625 0.36,0.21375 0.56,0.21375 l 6.21625,0 c 0.27875,0 0.67375,-0.0275 0.83875,-0.28875 l 0.38375,-0.655 c 0.0387,-0.095 0.0263,-0.2 -0.02,-0.29375 -0.0812,-0.1525 -0.26375,-0.27625 -0.5125,-0.3375"
         style="fill:#4f2683;fill-opacity:1;fill-rule:nonzero;stroke:none"
         id="path318" />
      <path
         d="m 307.00226,301.26753 0.2475,-0.50875 c 0.0888,-0.155 0.0987,-0.3125 0.0362,-0.43875 -0.0525,-0.1 -0.1775,-0.23125 -0.47375,-0.27125 -1.56375,-0.28875 -1.9,-0.44375 -1.9,-1.44 l 0,-14.39875 c 0,-1.0525 1.03875,-1.32 1.5025,-1.38875 l 0.06,-0.015 c 0.2175,-0.0513 0.4875,-0.115 0.625,-0.465 l 0.18875,-0.4525 c 0.0675,-0.17 0.0675,-0.31 -0.002,-0.42125 -0.0875,-0.13 -0.26,-0.1925 -0.52875,-0.1925 l -6.5925,0 c -0.29,0 -0.5,0.08 -0.655,0.2775 l -0.2475,0.50625 c -0.0875,0.155 -0.0988,0.31125 -0.0325,0.43875 0.05,0.1 0.17375,0.22875 0.46875,0.2725 1.5675,0.285 1.90125,0.4425 1.90125,1.44 l 0,14.39875 c 0,1.055 -1.03875,1.315 -1.5025,1.38125 l -0.0688,0.0213 c -0.21375,0.0537 -0.47875,0.1175 -0.61375,0.4625 l -0.19,0.4525 c -0.07,0.16875 -0.07,0.31 0.005,0.42 0.0838,0.1325 0.2575,0.1925 0.5275,0.1925 l 6.5925,0 c 0.29,0 0.4975,-0.0787 0.6525,-0.27125"
         style="fill:#4f2683;fill-opacity:1;fill-rule:nonzero;stroke:none"
         id="path320" />
      <path
         d="m 333.09776,299.99015 -0.0687,0.02 c -0.21625,0.055 -0.48,0.11875 -0.615,0.46375 l -0.18875,0.4525 c -0.07,0.1725 -0.07,0.31 0.004,0.42 0.0863,0.1325 0.25875,0.1925 0.52875,0.1925 l 6.5925,0 c 0.2875,0 0.49875,-0.08 0.65625,-0.27375 l 0.24375,-0.50625 c 0.0862,-0.15625 0.0987,-0.31375 0.0337,-0.44 -0.0513,-0.0987 -0.175,-0.23 -0.4725,-0.27 -1.5625,-0.29125 -1.8975,-0.44375 -1.8975,-1.44 l 0,-14.4 c 0,-1.05125 1.03875,-1.31875 1.5,-1.3875 l 0.0612,-0.015 c 0.20625,-0.05 0.485,-0.115 0.6225,-0.465 l 0.19125,-0.4525 c 0.07,-0.17 0.0675,-0.31 -0.005,-0.42125 -0.085,-0.13125 -0.25625,-0.1925 -0.525,-0.1925 l -6.59375,0 c -0.2925,0 -0.50125,0.08 -0.655,0.2775 l -0.24625,0.50625 c -0.0863,0.155 -0.0975,0.31125 -0.0337,0.44 0.0513,0.0987 0.175,0.2275 0.4675,0.27 1.5675,0.285 1.90625,0.4425 1.90625,1.44 l 0,14.4 c 0,1.055 -1.0425,1.315 -1.50625,1.38125"
         style="fill:#4f2683;fill-opacity:1;fill-rule:nonzero;stroke:none"
         id="path322" />
      <path
         d="m 347.52476,301.2499 c 0.325,0.28875 0.78125,0.28875 1.22875,0.28875 l 0.04,0 9.7425,0 c 0.9725,0 1.57875,-0.3225 1.57875,-0.845 l 0,-2.5975 c 0,-0.195 -0.12,-0.35 -0.2875,-0.38625 l -0.7875,-0.22875 -0.065,-0.009 c -0.1825,0 -0.3175,0.1825 -0.52125,0.45875 -0.46375,0.62625 -1.3225,1.8025 -3.5625,1.8025 l -2.7625,0 c -1.20375,0 -1.7825,-0.10875 -1.7825,-2.52125 l 0,-5.7575 6.0825,0 c 0.50625,0 0.89125,-0.08 1.12125,-0.46375 l 0.43625,-0.7125 c 0.11625,-0.18875 0.0888,-0.325 0.0412,-0.40625 -0.0575,-0.10375 -0.2,-0.22625 -0.56,-0.22625 l -7.12125,0 0,-6.5625 4.4525,0 c 1.25625,0 1.90625,0.86625 2.3325,1.43875 0.24625,0.32625 0.40625,0.54125 0.61625,0.54125 0.0613,0 0.12,-0.02 0.17875,-0.0637 l 0.57375,-0.43625 c 0.0937,-0.0888 0.2,-0.2075 0.2,-0.35375 l -10e-4,-2.0675 c 0.03,-0.19125 -0.0263,-0.38125 -0.15125,-0.53 -0.185,-0.215 -0.50875,-0.3375 -0.8925,-0.3375 l -12.275,0 c -0.38125,0 -0.5675,0.2125 -0.65125,0.3875 l -0.25375,0.485 c -0.065,0.13625 -0.0725,0.255 -0.0238,0.35875 0.0962,0.195 0.37125,0.2525 0.72,0.31875 1.3775,0.205 1.86625,0.6275 1.86625,1.6125 l 0,14.99875 c 0,0.9525 0.14875,1.515 0.4875,1.81375"
         style="fill:#4f2683;fill-opacity:1;fill-rule:nonzero;stroke:none"
         id="path324" />
      <path
         d="m 380.19626,300.07653 7.98,-17.87125 c 0.40375,-0.96751 0.80375,-1.80125 1.75625,-2.33501 0.66375,-0.3325 1.2825,-0.39999 1.4675,-0.86874 l 0.18375,-0.49625 c 0.22,-0.53625 -0.47375,-0.43875 -1.0975,-0.43875 l -5.165,0 c -0.365,0 -0.43875,0.20375 -0.58625,0.40375 l -0.2925,0.46625 c -0.55,0.83499 2.45375,0.13499 1.46375,2.4 l -6.3,14.67249 -6.18875,-14.57249 c -0.6925,-1.66501 1.50125,-1.4975 1.87125,-2.23375 l 0.32625,-0.6325 c 0.185,-0.3975 -0.145,-0.50375 -0.5475,-0.50375 l -7.03375,0 c -0.5875,0 -0.77,0.0375 -0.95375,0.37 l -0.32875,0.565 c -0.145,0.3675 0.1825,0.5 0.47875,0.56875 1.20625,0.26625 1.83,0.83374 2.34125,2.03375 l 7.98375,18.4725 c 0.2925,0.69625 0.4425,1.3325 0.95625,1.3325 l 0.655,0 c 0.4075,0 0.81,-0.8025 1.03,-1.3325"
         style="fill:#4f2683;fill-opacity:1;fill-rule:nonzero;stroke:none"
         id="path326" />
      <path
         d="m 393.01226,299.99015 -0.075,0.02 c -0.20875,0.055 -0.475,0.11875 -0.61375,0.46375 l -0.18625,0.45125 c -0.0713,0.17 -0.0713,0.31125 0,0.42 0.0862,0.13375 0.2625,0.19375 0.53,0.19375 l 6.595,0 c 0.285,0 0.5,-0.085 0.655,-0.27375 l 0.245,-0.50625 c 0.0863,-0.155 0.1,-0.31125 0.035,-0.43875 -0.0525,-0.1 -0.17375,-0.23125 -0.4725,-0.27125 -1.565,-0.29125 -1.9025,-0.44375 -1.9025,-1.44 l 0,-14.4 c 0,-1.05125 1.0425,-1.31875 1.5,-1.3875 l 0.0662,-0.015 c 0.20625,-0.05 0.4875,-0.115 0.62625,-0.465 l 0.18375,-0.45375 c 0.0725,-0.16875 0.0713,-0.30875 -0.001,-0.42125 -0.0875,-0.13 -0.26125,-0.19125 -0.53,-0.19125 l -6.5925,0 c -0.285,0 -0.49875,0.08 -0.65375,0.2775 l -0.24625,0.5075 c -0.085,0.155 -0.0975,0.3125 -0.0325,0.43875 0.0512,0.0987 0.17375,0.2275 0.47,0.27 1.565,0.285 1.905,0.4425 1.905,1.44 l 0,14.4 c 0,1.055 -1.045,1.315 -1.505,1.38125"
         style="fill:#4f2683;fill-opacity:1;fill-rule:nonzero;stroke:none"
         id="path328" />
      <path
         d="m 419.43626,300.6934 0,-2.5975 c 0,-0.195 -0.1175,-0.35 -0.285,-0.38625 l -0.79,-0.22875 -0.0625,-0.009 c -0.1825,0 -0.31875,0.18375 -0.52125,0.45875 -0.4625,0.62625 -1.32125,1.8025 -3.56,1.8025 l -2.7625,0 c -1.20375,0 -1.78625,-0.1075 -1.78625,-2.52 l 0,-5.75875 6.085,0 c 0.505,0 0.8875,-0.0788 1.12,-0.4625 l 0.4375,-0.71375 c 0.115,-0.18875 0.0863,-0.32625 0.04,-0.4075 -0.0588,-0.10375 -0.2,-0.225 -0.5575,-0.225 l -7.125,0 0,-6.5625 4.45125,0 c 1.26125,0 1.90625,0.86625 2.33625,1.44 0.24125,0.325 0.405,0.54 0.6125,0.54 0.06,0 0.11875,-0.02 0.18,-0.0625 l 0.575,-0.4375 c 0.0838,-0.0775 0.20125,-0.20125 0.20125,-0.35375 l -0.005,-2.0675 c 0.03,-0.19125 -0.0238,-0.38 -0.14625,-0.53 -0.185,-0.215 -0.51375,-0.33625 -0.895,-0.33625 l -12.275,0 c -0.30625,0 -0.5275,0.13 -0.65125,0.38625 l -0.2525,0.485 c -0.0687,0.13625 -0.0762,0.255 -0.0263,0.35875 0.0975,0.195 0.37,0.2525 0.72,0.31875 1.38,0.205 1.86875,0.62875 1.86875,1.6125 l 0,15 c 0,0.95125 0.14875,1.51375 0.48375,1.8125 0.32625,0.28875 0.785,0.28875 1.23,0.28875 l 0.04,0 9.7425,0 c 0.9725,0 1.5775,-0.3225 1.5775,-0.845"
         style="fill:#4f2683;fill-opacity:1;fill-rule:nonzero;stroke:none"
         id="path330" />
      <path
         d="m 452.68826,281.46578 c -0.0825,-0.1225 -0.24875,-0.19 -0.46375,-0.19 l -5.965,0 c -0.27625,0 -0.41875,0.12125 -0.48875,0.23 l -0.345,0.5425 c -0.0588,0.0925 -0.075,0.17875 -0.045,0.26 0.0575,0.1575 0.25875,0.215 0.535,0.2925 0.14875,0.0437 0.315,0.0913 0.48125,0.1575 l 0.0962,0.0425 c 0.535,0.2225 1.2675,0.53 0.86375,1.71 l -4.1425,12.0375 -5.055,-14.35125 -0.0225,-0.0712 c -0.1175,-0.35875 -0.275,-0.85 -0.60375,-0.85 l -1.445,0 c -0.3725,0 -0.49875,0.39125 -0.63625,0.80875 l -5.1075,14.46875 -4.33875,-12.30376 c -0.0937,-0.25874 -0.10125,-0.46999 -0.0163,-0.64749 0.17125,-0.37 0.71125,-0.56625 1.19,-0.7325 0.45,-0.16375 0.835,-0.30001 0.96625,-0.58375 l 0.24375,-0.61875 c 0.0588,-0.12125 0.0312,-0.20875 0,-0.25625 -0.0825,-0.13125 -0.27,-0.1425 -0.44125,-0.1425 -0.095,0.004 -0.21125,0.007 -0.30875,0.007 l -6.21375,0 c -0.18625,0 -0.52375,0 -0.6225,0.275 l -0.255,0.51875 c -0.0488,0.10875 -0.0513,0.20875 -0.015,0.30375 0.08,0.19625 0.325,0.29375 0.57875,0.39625 l 0.0412,0.0163 c 0.77875,0.33125 1.005,0.46625 1.495,1.7 l 6.0025,16.055 c 0.1925,0.51125 0.3775,0.9975 0.90625,0.9975 l 0.66,0 c 0.57625,0 0.69875,-0.3925 0.81125,-0.74 0.02,-0.0675 0.0425,-0.13375 0.0688,-0.20375 l 5.27,-14.3075 5.02625,14.25125 c 0.22,0.605 0.36875,1 0.87875,1 l 1.00375,0 c 0.5225,0 0.6675,-0.39875 0.8025,-0.78875 0.0238,-0.0662 0.0475,-0.13625 0.0763,-0.2125 l 5.68375,-16.08375 c 0.3925,-1.10125 0.6675,-1.35125 1.7325,-1.60375 0.0687,-0.02 0.13375,-0.0362 0.195,-0.055 0.33,-0.0937 0.61,-0.17 0.6775,-0.3975 l 0.25,-0.6175 c 0.0537,-0.11 0.0487,-0.2225 -0.005,-0.31375"
         style="fill:#4f2683;fill-opacity:1;fill-rule:nonzero;stroke:none"
         id="path332" />
      <path
         d="m 387.27026,318.40753 c 0.6275,-0.6425 0.9475,-1.5925 0.925,-2.75125 -0.0412,-2.0275 -0.96,-2.97376 -2.895,-2.97376 l -2.0825,0 0,6.62876 1.69875,0.005 c 0.93625,0 1.77375,-0.3225 2.35375,-0.90875 m 6.7075,8.55625 c 0.10875,0.16875 0.025,0.43625 -0.06,0.64625 -0.1675,0.39875 -0.4275,0.39875 -0.72875,0.39875 l -0.3025,0 c -2.30875,0 -3.3225,-1.1075 -4.07375,-2.305 l -3.19375,-4.9325 -2.40125,0 0,4.8225 c 0,0.8325 0.28125,0.9725 1.5025,1.21875 0.215,0.0325 0.30625,0.12875 0.3425,0.20375 0.0487,0.1025 0.0425,0.22375 -0.0288,0.36 l -0.17625,0.3825 c -0.075,0.11625 -0.20375,0.25 -0.51125,0.25 l -5.12875,0 c -0.135,0 -0.31125,-0.0275 -0.3975,-0.14625 -0.0387,-0.06 -0.0725,-0.165 -0.004,-0.33875 l 0.14625,-0.375 c 0.10375,-0.2775 0.30375,-0.3275 0.46125,-0.3675 l 0.075,-0.0213 c 0.7425,-0.11625 1.16875,-0.54125 1.16875,-1.16625 l 0,-11.7625 c 0,-0.94375 -0.53875,-1.21375 -1.46125,-1.36125 -0.30125,-0.0575 -0.47875,-0.1125 -0.55125,-0.25 -0.0225,-0.0437 -0.05,-0.135 0.015,-0.27875 l 0.2,-0.40875 c 0.0925,-0.19875 0.2625,-0.30625 0.4925,-0.30625 l 6.42875,0 c 3.21875,0 4.93125,1.45874 4.95375,4.21375 0,1.705 -1.0775,3.42625 -2.80875,4.49375 l -0.1575,0.0987 0.9075,1.50125 c 1.71875,2.84875 2.85125,4.7325 4.14375,5.16625 l 0.17,0.0375 c 0.2075,0.0437 0.36625,0.0788 0.58375,0.0788 0.29125,0 0.3675,0.11249 0.39375,0.1475 m 53.5325,-15.7075 -3.73625,0 c -0.2075,0 -0.285,0.11125 -0.3575,0.22125 l -0.18375,0.34 c -0.045,0.0838 -0.0575,0.155 -0.0362,0.22375 0.0362,0.1225 0.15875,0.19 0.37125,0.29625 0.1,0.05 0.2075,0.10375 0.325,0.1725 0.1725,0.10375 0.3875,0.23125 0.4375,0.44375 0.0425,0.15125 -0.01,0.35 -0.15875,0.60375 l -3.36625,6.075 -2.8325,-5.95375 c -0.21125,-0.61375 -0.0387,-0.83625 0.16,-1.0125 0.13,-0.12 0.28,-0.19625 0.41,-0.2625 0.1775,-0.09 0.335,-0.17 0.38,-0.30375 l 0.2,-0.50125 c 0.045,-0.1175 0.01,-0.20375 -0.0225,-0.25125 -0.0637,-0.0875 -0.185,-0.14 -0.3225,-0.14 l -4.4225,0 c -0.19375,0 -0.3925,0.0187 -0.48875,0.23 l -0.22375,0.47375 c -0.03,0.0725 -0.0312,0.15125 10e-4,0.2225 0.0738,0.1625 0.2825,0.25375 0.49125,0.32625 l 0.13875,0.0587 c 0.41125,0.185 0.64625,0.32875 1.13625,1.30375 l 3.6875,7.515 0,4.22625 c 0,0.6275 -0.42375,1.0525 -1.15875,1.1675 l -0.0637,0.0125 c -0.155,0.04 -0.35625,0.0913 -0.4625,0.375 l -0.14625,0.37375 c -0.0675,0.1725 -0.0362,0.27375 0.004,0.33 0.0687,0.0988 0.2,0.1475 0.39125,0.1475 l 5.06875,0 c 0.2875,0 0.415,-0.11875 0.51125,-0.2475 l 0.17125,-0.385 c 0.0475,-0.0975 0.0863,-0.2275 0.0238,-0.355 -0.0375,-0.0763 -0.1325,-0.175 -0.33875,-0.2075 -1.205,-0.23875 -1.485,-0.37625 -1.485,-1.21125 l -0.004,-3.23875 c -0.004,-0.58875 -0.0113,-1.2025 0.405,-1.98125 l 3.6425,-6.51375 c 0.5275,-0.9425 0.94875,-1.16 1.335,-1.30375 l 0.145,-0.06 c 0.23125,-0.0937 0.51125,-0.20375 0.58125,-0.415 l 0.11625,-0.36625 c 0.0463,-0.1325 0.0413,-0.2375 -0.0137,-0.31625 -0.0638,-0.0937 -0.205,-0.1125 -0.31,-0.1125 m -15.4075,0.16875 c -0.0813,-0.1825 -0.3425,-0.2175 -0.5475,-0.2175 l -12.11625,0 c -0.40125,0 -0.68875,0.0238 -1.01625,0.35375 l -0.41,0.63125 c -0.1625,0.18125 -0.20875,0.32625 -0.15625,0.45 0.0788,0.17375 0.34125,0.20875 0.54625,0.20875 l 5.3225,0 0,12.7125 c 0,0.6275 -0.42625,1.0525 -1.16125,1.1675 l -0.0587,0.0125 c -0.16,0.04 -0.365,0.0913 -0.465,0.3675 l -0.15,0.3825 c -0.0663,0.17125 -0.035,0.27375 0.006,0.33 0.0925,0.1325 0.26875,0.14625 0.3925,0.14625 l 5.07,0 c 0.26625,0 0.40625,-0.1075 0.47625,-0.19875 l 0.19875,-0.435 c 0.0712,-0.13375 0.0787,-0.255 0.0288,-0.35375 -0.0575,-0.11375 -0.17125,-0.1825 -0.34,-0.2075 -1.2,-0.23875 -1.4825,-0.37625 -1.4825,-1.21125 l 0,-12.7125 4.2775,0 c 0.39375,0 0.695,-0.025 1.01125,-0.345 l 0.4125,-0.63375 c 0.11875,-0.1325 0.22875,-0.3 0.16125,-0.4475 m -18.27375,14.13875 0,-11.945 c 0,-0.63 0.42375,-1.05625 1.15875,-1.17125 l 0.0525,-0.015 c 0.1625,-0.0412 0.3675,-0.0937 0.475,-0.37 l 0.1425,-0.37375 c 0.0525,-0.13625 0.0512,-0.255 -0.005,-0.34125 -0.065,-0.09 -0.19625,-0.14 -0.3925,-0.14 l -5.065,0 c -0.235,0 -0.3825,0.0725 -0.51625,0.24875 l -0.17,0.38625 c -0.0662,0.13125 -0.0712,0.25875 -0.0163,0.3575 0.0388,0.0762 0.1275,0.16875 0.3325,0.2 1.20625,0.23875 1.48375,0.38 1.48375,1.21875 l 0,11.945 c 0,0.6275 -0.4225,1.0525 -1.15625,1.1675 l -0.0575,0.0125 c -0.1625,0.04 -0.365,0.0913 -0.4675,0.37125 l -0.1475,0.3775 c -0.05,0.1375 -0.0487,0.24875 0.005,0.335 0.0925,0.12875 0.26875,0.1425 0.395,0.1425 l 5.0675,0 c 0.28375,0 0.4125,-0.12 0.5125,-0.25 l 0.16625,-0.3825 c 0.0475,-0.0975 0.0888,-0.2275 0.025,-0.355 -0.04,-0.0775 -0.13,-0.17375 -0.33875,-0.2075 -1.2025,-0.23875 -1.48375,-0.37625 -1.48375,-1.21125 m -12.24,-7.65875 c -1.995,-1.32 -3.18875,-2.23875 -2.92875,-3.895 0.1925,-1.19625 1.45125,-1.84125 2.5425,-1.84125 1.10625,0 1.77,0.38125 2.215,1.27625 l 0.09,0.18 c 0.39875,0.79125 0.6775,1.31 0.905,1.31 l 0.0675,-0.01 0.63875,-0.51375 c 0.0663,-0.0812 0.13125,-0.1625 0.13125,-0.2725 l -10e-4,-1.72125 c 0.0587,-0.50625 -0.4275,-0.74125 -1.1175,-1.0225 -0.82125,-0.3175 -1.7175,-0.46875 -2.73375,-0.46875 -3.2425,0 -5.23125,2.34125 -5.23125,4.01875 0,2.14125 1.665,3.2725 3.00125,4.17875 l 0.8525,0.58875 c 1.475,1.005 3.4875,2.3825 3.33625,4.285 -0.0725,1.71875 -1.33375,2.87375 -3.1425,2.87375 -1.2375,0 -2.22625,-0.5575 -2.64375,-1.495 -0.2525,-0.4175 -0.39375,-0.86125 -0.51,-1.22 l -0.0163,-0.0487 c -0.145,-0.4725 -0.2275,-0.68875 -0.4125,-0.70375 l -0.76375,0.2275 c -0.2125,0.0863 -0.215,0.33125 -0.19625,0.61875 0.007,0.0838 0.0125,0.13125 0.0125,0.17125 l 0,2.29875 c 0,0.705 0.0987,0.735 1.315,1.105 0.94375,0.28875 1.9725,0.42875 3.1425,0.42875 1.815,0 3.52625,-0.65125 4.5825,-1.74375 0.7775,-0.8 1.16375,-1.81875 1.12875,-2.94 -0.0975,-2.74125 -1.67625,-3.96875 -4.26375,-5.665 m -25.495,6.93625 -0.7025,-0.2075 c -0.0937,0.002 -0.195,0.13875 -0.35375,0.37875 -0.36125,0.5275 -1.025,1.5025 -2.75,1.5025 l -2.12,0 c -0.98625,0 -1.38375,-0.1925 -1.38375,-2.11625 l 0,-4.79125 4.6875,0 c 0.38625,0 0.67625,-0.0637 0.85125,-0.375 l 0.33875,-0.59625 c 0.0937,-0.1725 0.0437,-0.28 0.025,-0.30875 -0.0838,-0.14875 -0.2725,-0.17625 -0.41625,-0.17625 l -5.48625,0 0,-5.49 3.43375,0 c 0.97,0 1.47,0.72375 1.8,1.2025 0.20875,0.29375 0.31625,0.43875 0.46375,0.43875 0.0475,0 0.0913,-0.0175 0.13,-0.0487 l 0.45125,-0.36625 c 0.09,-0.0825 0.13875,-0.175 0.13875,-0.26875 l -0.005,-1.68875 c 0.0275,-0.18875 -0.015,-0.34 -0.12125,-0.46625 -0.14375,-0.165 -0.3775,-0.25625 -0.6625,-0.25625 l -14.85625,0.0125 c -0.25375,0 -0.34125,0.13625 -0.41875,0.2575 l -0.2325,0.3925 c -0.0725,0.11875 -0.0625,0.20375 -0.05,0.255 0.0513,0.12875 0.205,0.1875 0.43375,0.25875 0.25375,0.0825 0.5375,0.17375 0.64875,0.41625 0.0862,0.185 0.0637,0.44375 -0.0775,0.795 l -4.0675,10.215 -3.99625,-10.14 c -0.265,-0.68875 0.1625,-0.87875 0.61375,-1.07875 0.25375,-0.11375 0.5125,-0.2275 0.61,-0.4375 l 0.22875,-0.465 c 0.0525,-0.12375 0.0487,-0.22875 -0.007,-0.315 -0.10125,-0.15375 -0.35625,-0.15375 -0.44,-0.15375 l -4.63375,0 c -0.41,0 -0.56625,0.0225 -0.70625,0.3 l -0.2325,0.4375 c -0.0288,0.0913 -0.0263,0.18875 0.0188,0.28 0.0762,0.145 0.2875,0.2025 0.36875,0.22375 0.75625,0.17875 1.14375,0.5425 1.48125,1.38875 l 5.34625,13.36 c 0.17625,0.4775 0.30375,0.76875 0.62375,0.76875 l 0.43375,0 c 0.2475,0 0.5025,-0.33375 0.75625,-0.995 l 5.35,-12.90375 c 0.2475,-0.6425 0.47875,-1.2375 1.0775,-1.5125 0.35125,-0.16 0.79,-0.2425 1.305,-0.2425 0.5475,0 1.20125,0.0725 1.23125,0.0737 0.74875,0.20375 1.04125,0.57 1.04125,1.265 l 0,12.58375 c 0,0.78375 0.115,1.24375 0.37,1.49 0.24625,0.2325 0.6025,0.2325 0.94375,0.2325 l 7.5125,0 c 0.885,0 1.2,-0.3525 1.2,-0.685 l 0,-2.15125 c 0,-0.14625 -0.0813,-0.26625 -0.195,-0.2925 m -32.6525,0.7225 0,-11.945 c 0,-0.62625 0.42375,-1.05625 1.16125,-1.17125 l 0.055,-0.015 c 0.16,-0.0412 0.365,-0.0937 0.465,-0.3675 l 0.14625,-0.3775 c 0.07,-0.17375 0.0337,-0.28 -0.005,-0.33875 -0.0625,-0.0913 -0.19625,-0.14125 -0.39,-0.14125 l -5.07125,0 c -0.29375,0 -0.42,0.12375 -0.50375,0.245 l -0.17875,0.39125 c -0.065,0.13 -0.0687,0.25625 -0.0162,0.35875 0.0375,0.0737 0.12625,0.16625 0.33625,0.1975 1.20375,0.23625 1.4825,0.38 1.4825,1.21875 l 0,11.945 c 0,0.6275 -0.42125,1.0525 -1.1575,1.1675 l -0.0575,0.0125 c -0.16,0.04 -0.365,0.0913 -0.4675,0.3675 l -0.1475,0.38125 c -0.05,0.135 -0.05,0.255 0.007,0.33125 0.0888,0.1325 0.26625,0.14625 0.39,0.14625 l 5.07,0 c 0.20125,0 0.3575,-0.06 0.4675,-0.18125 l 0.20625,-0.44875 c 0.0725,-0.13375 0.0813,-0.25625 0.0312,-0.35375 -0.0575,-0.11625 -0.17,-0.18625 -0.34125,-0.21125 -1.20125,-0.23875 -1.4825,-0.37625 -1.4825,-1.21125 m -6.93375,-14.2075 c -0.09,-0.13375 -0.27,-0.14875 -0.39625,-0.14875 l -4.22375,0 c -0.23125,0 -0.38,0.0725 -0.50875,0.24875 l -0.16875,0.38625 c -0.0475,0.0962 -0.0875,0.2275 -0.025,0.3575 0.0387,0.0737 0.12875,0.16875 0.33875,0.2 1.205,0.23625 1.485,0.38 1.485,1.21875 l 0,10.47875 -9.97625,-12.02 c -0.3875,-0.445 -0.71875,-0.82625 -1.3175,-0.87125 l -2.88375,10e-4 c -0.2325,0 -0.38125,0.0725 -0.515,0.24875 l -0.16875,0.39375 c -0.06,0.13 -0.0663,0.24 -0.0175,0.335 0.085,0.16375 0.32,0.225 0.49125,0.26 0.25875,0.0538 1.17625,0.2925 2.06875,1.175 l 0.055,0.0563 0,11.8875 c 0,0.6275 -0.42,1.0525 -1.155,1.1675 l -0.0625,0.0125 c -0.1575,0.04 -0.3625,0.0913 -0.46375,0.36875 l -0.14625,0.38 c -0.055,0.14 -0.0537,0.24875 0.005,0.3325 0.0838,0.1225 0.2575,0.145 0.3925,0.145 l 4.2225,0 c 0.2275,0 0.37875,-0.0713 0.50875,-0.25 l 0.17,-0.3825 c 0.0475,-0.0975 0.0862,-0.22875 0.0237,-0.355 -0.0575,-0.1125 -0.17125,-0.1825 -0.33875,-0.2075 -1.20125,-0.23875 -1.48375,-0.37625 -1.48375,-1.21125 l 0,-10.3375 9.6725,11.645 c 0.8225,0.995 0.9175,1.09875 1.07625,1.09875 l 0.8975,0 c 0.43375,0 0.6175,-0.25875 0.6175,-0.87 l 0,-13.48125 c 0,-0.62125 0.42125,-1.045 1.155,-1.17 l 0.06,-0.0138 c 0.16125,-0.0437 0.36625,-0.10125 0.46875,-0.37 l 0.1425,-0.37625 c 0.0712,-0.18625 0.0312,-0.28625 0,-0.3325 m -19.8325,-0.13375 c -0.0863,-0.13 -0.26375,-0.145 -0.39,-0.145 l -4.2225,0 c -0.23375,0 -0.385,0.0737 -0.51375,0.24875 l -0.17,0.39125 c -0.0475,0.0962 -0.0863,0.23 -0.0225,0.3525 0.0425,0.075 0.135,0.1725 0.3375,0.20125 1.2075,0.2375 1.48375,0.37625 1.48375,1.2175 l 0,7.91125 c 0,3.37125 -1.3875,4.93875 -4.375,4.93875 -2.9275,0 -3.96625,-2.685 -3.96625,-4.985 l 0,-7.865 c 0,-0.63 0.4225,-1.05375 1.1575,-1.16875 l 0.06,-0.015 c 0.165,-0.045 0.365,-0.10125 0.4625,-0.36875 l 0.14625,-0.37875 c 0.0725,-0.18375 0.0325,-0.2825 -0.004,-0.33875 -0.09,-0.12625 -0.26625,-0.14125 -0.39125,-0.14125 l -5.06875,0 c -0.23375,0 -0.3825,0.0737 -0.51125,0.25 l -0.1675,0.38375 c -0.0675,0.135 -0.0725,0.2625 -0.0238,0.3625 0.0412,0.0713 0.13375,0.16875 0.33625,0.1975 1.20625,0.2375 1.485,0.38 1.485,1.2175 l 0,7.9375 c 0,4.38125 2.22625,6.69875 6.44,6.69875 1.8325,0 6.09375,-0.66 6.09375,-6.77125 l 0,-7.865 c 0,-0.63 0.42125,-1.05375 1.15875,-1.16875 l 0.0562,-0.015 c 0.2,-0.0525 0.37375,-0.1175 0.46625,-0.36625 l 0.15,-0.38125 c 0.0525,-0.14 0.0513,-0.25125 -0.007,-0.335 m -22.81625,-0.002 c -0.0975,-0.1425 -0.31,-0.1425 -0.4125,-0.1425 l -2.775,0 c -0.48375,0 -0.82,0.2525 -1.09375,0.8125 l -6.145,12.44125 -5.7875,-12.2275 c -0.4125,-0.89125 -0.6025,-1.02625 -1.45625,-1.02625 l -3.20875,0 c -0.23375,0 -0.3825,0.0737 -0.5125,0.2525 l -0.17375,0.395 c -0.0588,0.13125 -0.0638,0.23625 -0.0163,0.325 0.0875,0.1675 0.335,0.2325 0.515,0.26875 0.2425,0.0475 1.1,0.2775 2.0225,1.19625 l 0.055,0.055 0,11.86125 c 0,0.6275 -0.42125,1.05375 -1.155,1.16625 l -0.0537,0.0175 c -0.17125,0.045 -0.37125,0.0962 -0.4725,0.36875 l -0.14625,0.37875 c -0.0525,0.1375 -0.0512,0.255 0.005,0.33625 0.0813,0.1175 0.2575,0.1425 0.38875,0.1425 l 4.22375,0 c 0.22875,0 0.37875,-0.07 0.5125,-0.25 l 0.16875,-0.38625 c 0.0487,-0.095 0.0887,-0.22875 0.0225,-0.35375 -0.0387,-0.0737 -0.12875,-0.17125 -0.3375,-0.2 -1.20375,-0.24125 -1.48375,-0.385 -1.48375,-1.22 l 0,-9.10375 0.3575,-0.0788 5.0725,10.78 c 0.225,0.48625 0.41625,0.8125 0.61375,0.8125 l 0.485,0 c 0.23125,0 0.36125,-0.22625 0.53625,-0.5725 l 5.41125,-11.055 0.35875,0.0813 0,9.13625 c 0,0.6275 -0.42375,1.05375 -1.15875,1.16625 l -0.0488,0.0175 c -0.17125,0.0425 -0.375,0.095 -0.47625,0.36875 l -0.145,0.38 c -0.0563,0.1375 -0.0525,0.25125 0.006,0.34125 0.0638,0.0888 0.1975,0.13625 0.3925,0.13625 l 5.065,0 c 0.21625,0 0.37375,-0.065 0.4825,-0.19625 l 0.19625,-0.43875 c 0.0475,-0.095 0.0888,-0.23 0.025,-0.35875 -0.0375,-0.0725 -0.1275,-0.16625 -0.3375,-0.19625 -1.20375,-0.24125 -1.485,-0.385 -1.485,-1.22 l 0,-11.75375 c 0,-0.8675 0.42625,-1.12 1.16125,-1.26 l 0.07,-0.02 c 0.2425,-0.0663 0.49125,-0.13375 0.60375,-0.41 l 0.1375,-0.4075 c 0.0838,-0.23125 0.015,-0.32875 -0.007,-0.36 m -45.6975,10.11875 -2.67125,-6.82625 -2.715,6.82625 5.38625,0 z m 0.76,6.5025 c -0.205,0 -0.355,-0.06 -0.4175,-0.16 -0.0325,-0.06 -0.0575,-0.16 0.0275,-0.31375 l 0.20625,-0.42625 c 0.0775,-0.13875 0.23375,-0.20125 0.4675,-0.28375 0.22125,-0.0788 0.47375,-0.17125 0.58,-0.3925 0.0875,-0.18625 0.0687,-0.4575 -0.055,-0.80375 l -0.9925,-2.6675 -6.4925,0 -1.1625,2.90625 c -0.075,0.19125 -0.0838,0.3425 -0.0288,0.46625 0.0975,0.225 0.3975,0.34 0.685,0.455 0.2425,0.0875 0.45125,0.165 0.5075,0.32375 0.0263,0.0725 0.0162,0.15375 -0.03,0.23125 l -0.15625,0.255 c -0.11,0.21625 -0.235,0.41 -0.55125,0.41 l -3.925,0.004 c -0.25875,0 -0.45,-0.0288 -0.54125,-0.165 -0.0613,-0.0913 -0.055,-0.2225 0.02,-0.4 l 0.11625,-0.29375 c 0.085,-0.2175 0.29375,-0.28125 0.68,-0.3825 1.00375,-0.21375 1.1425,-0.3325 1.6425,-1.41 l 4.43375,-10.93125 c 0.37,-0.9075 -0.0275,-1.24 -0.32125,-1.48625 l -0.09,-0.0775 c -0.2025,-0.17125 -0.49125,-0.25875 -0.79625,-0.34125 -0.28375,-0.08 -0.5525,-0.15375 -0.625,-0.335 -0.0387,-0.0937 -0.0212,-0.20625 0.0688,-0.365 l 0.0937,-0.2725 c 0.1275,-0.2825 0.38875,-0.3075 0.6675,-0.3075 l 3.47625,0 c 0.3425,0 0.59375,0.2675 0.69625,0.75875 1.59,4.51375 3.53125,9.14625 5.09125,12.87 l 0.20625,0.49875 c 0.39875,0.97375 0.45125,1.02 1.4175,1.26625 l 0.4075,0.10625 c 0.18,0.0475 0.31625,0.14 0.375,0.24875 0.0288,0.0587 0.0575,0.1475 0.0363,0.21375 l -0.30125,0.56125 c -0.14375,0.24 -0.5175,0.24 -0.63875,0.24 l -4.7775,0 z m 15.13875,-3.06625 -3.88,-3.93 -0.13,0.0937 c -1.215,0.86875 -1.75625,1.45375 -1.75625,2.605 0,1.56125 1.2625,2.83 2.815,2.83 0.9175,0 1.84,-0.48125 2.82,-1.46625 l 0.13125,-0.1325 z m -4.10125,-8.05375 c 0,0.70625 0.5,1.31625 1.05625,1.9325 l 0.115,0.12625 0.1375,-0.1025 c 0.73875,-0.5525 1.23,-1.095 1.23,-1.935 0,-0.83125 -0.44125,-1.31 -1.20875,-1.31 -0.3125,0 -1.33,0.095 -1.33,1.28875 m 10.54875,9.725 c -0.95,1.0575 -1.71,1.71625 -2.5775,1.71625 -0.49,0 -0.9475,-0.2 -1.2825,-0.55625 l -1.7525,-1.9275 -0.14,0.14 c -1.53,1.555 -3.05,2.34375 -4.52125,2.34375 -3.52125,0 -4.24125,-3.27125 -4.24125,-4.1475 0,-1.6125 0.38875,-1.8925 2.53625,-3.44875 l 0.755,-0.55875 -0.14875,-0.155 c -0.83,-0.8525 -1.23375,-1.6875 -1.23375,-2.5525 0,-1.94125 2.18,-3.29375 4.13875,-3.29375 0.9725,0 2.51625,0.63625 2.51625,2.355 0,1.315 -1.16125,2.29875 -2.41375,3.16375 l -0.18375,0.12625 3.41625,3.535 0.13125,-0.1875 c 0.69625,-1.00875 1.00375,-1.58875 1.32125,-2.305 l 0.0238,-0.0537 -0.01,-0.0538 c -0.0438,-0.25625 -0.3975,-0.3225 -0.72125,-0.365 -0.37125,-0.0512 -0.60375,-0.095 -0.7175,-0.305 l -0.0775,-0.1475 0.1975,-0.5325 c 0.23125,-0.46125 0.6025,-0.46125 0.7975,-0.46125 l 0.185,0.004 c 0.115,0 0.49625,-0.006 0.9675,-0.0125 l 1.745,-0.0238 c 0.33875,-0.005 0.60375,-0.006 0.71,-0.006 0.23,0 0.54375,0 0.70875,0.21625 0.0925,0.13125 0.1125,0.28375 0.0625,0.46 l -0.135,0.375 c -0.16875,0.35875 -0.4975,0.4025 -0.78875,0.4425 -0.46,0.06 -1.095,0.14375 -1.71125,1.1875 -0.52375,0.8925 -1.14875,1.7475 -1.70375,2.50375 l -0.11875,0.16875 0.86625,0.9 c 0.74625,0.73625 1.30125,1.11 1.655,1.11 0.165,0 0.7475,-0.05 1.25375,-0.6775 l 0.1025,-0.1225 0.1875,-0.0125 c 0.22625,0 0.47375,0.205 0.555,0.39 l 0.0863,0.195 -0.44,0.57375 z"
         style="fill:#4f2683;fill-opacity:1;fill-rule:nonzero;stroke:none"
         id="path334" />
      <path
         d="m 222.31539,303.96728 c 0.0187,-0.2825 0.0362,-0.6275 0.0362,-1.03375 0,-0.2075 0.005,-0.37126 0.0125,-0.505 0.035,-1.71625 -0.38375,-2.71625 -1.61375,-3.84125 -0.0238,-0.0175 -0.0425,-0.0387 -0.0662,-0.0588 0,-0.74625 -0.05,-1.87376 -0.5775,-3.31375 -0.37875,-1.03751 -0.42625,-1.55 -0.555,-3.53625 -0.055,-0.85501 -0.12125,-1.89375 -0.24375,-3.23251 -0.0487,-0.53874 -0.085,-0.98875 -0.115,-1.3575 -0.115,-1.3675 -0.415,-5.00375 -3.9875,-5.00375 -0.31,0 -0.5725,0.0362 -0.76625,0.0738 -0.66375,-0.15125 -0.72625,-0.18625 -1.2125,-0.45251 -0.29,-0.1625 -0.65,-0.35874 -1.15625,-0.61124 -0.9075,-0.45375 -1.49125,-0.66876 -1.96625,-0.8425 -0.4675,-0.17 -0.77875,-0.2825 -1.54625,-0.70875 -0.8075,-0.45001 -1.91,-0.96626 -3.22625,-0.96626 -1.5875,0 -2.70625,0.72876 -3.6075,1.31625 -0.20125,0.13 -0.42625,0.2775 -0.6875,0.43501 -0.0312,-0.015 -0.0687,-0.035 -0.105,-0.05 -0.4925,-0.24875 -0.7675,-0.4175 -0.94875,-0.52875 -0.4325,-0.26874 -1.2475,-0.76749 -2.465,-0.76749 -0.395,0 -0.7125,0.0487 -1.0525,0.10125 l -0.008,0 -0.2,-0.1375 c -0.7,-0.46751 -1.565,-1.05 -2.8675,-1.05 -0.51125,0 -0.90625,0.0937 -1.17375,0.1525 -0.085,0.02 -0.20125,0.0512 -0.36625,0.0762 -0.7125,0.12125 -1.21125,0.2825 -1.54,0.3925 -0.17,-0.0425 -0.36625,-0.1125 -0.59,-0.18625 -0.62125,-0.21 -1.4725,-0.49875 -2.525,-0.49875 -0.3775,0 -0.755,0.04 -1.1225,0.1125 -0.16875,0.035 -0.33125,0.0775 -0.485,0.1175 -0.98625,-0.65625 -2.0875,-1.20875 -2.9525,-1.6425 -0.32125,-0.1625 -0.6025,-0.29751 -0.77375,-0.39876 -0.0538,-0.0325 -0.10875,-0.0663 -0.16375,-0.10375 l 0,-13.43625 0,-3.615 -3.615,0 -19.41625,0 -3.57875,0 -0.0375,3.5725 -0.36625,30.50625 -18.71,0 -6.24375,0 3.11,5.415 c 0.055,0.11 1.52125,2.65375 2.38625,3.94875 0.95,1.42125 1.88,2.5725 3.07375,3.9675 0.0962,0.5925 0.315,1.6575 1.265,2.83875 1.12625,1.39 2.41625,2.19625 3.36125,2.78625 0.2975,0.18125 0.6625,0.4125 0.79,0.5275 0.48125,0.4275 1.08375,1.61 2.40375,4.2525 0.20125,0.40125 0.39,0.78875 0.57375,1.1625 1.48375,3.05 3.01875,6.20375 6.77375,7.1475 0.755,0.1825 1.14375,0.395 1.69375,0.685 0.77125,0.415 1.8425,0.98625 3.4675,1.16125 0.3225,0.0375 0.63375,0.0563 0.91875,0.0563 3.92625,0 5.40625,-3.12625 6.33125,-5.52 0.13375,0.095 0.27875,0.20875 0.395,0.34625 1.3875,1.55875 2.6275,4.095 4.15,8.48625 1.4,4.045 2.51,5.4675 4.9625,6.34375 0.30875,0.11 0.37625,0.13375 0.60875,0.32125 1.46625,1.19875 1.6375,1.4975 3,3.8475 l 0.6225,1.065 c 0.94125,1.6075 2.4825,3.76125 4.96625,3.9875 0.705,0.0888 0.815,0.1125 1.685,0.58875 0.16375,0.0925 0.32375,0.18 0.475,0.27 1.02125,0.57375 2.28875,1.29 3.9875,1.29 0.60875,0 1.21625,-0.1 1.8125,-0.29125 0.135,0.0763 0.31,0.17375 0.5375,0.30125 0.91125,0.5175 1.84375,0.7875 2.78,0.7875 2.03875,0 3.645,-1.145 4.77875,-3.39875 l 0.0662,-0.13375 0.86375,-1.605 -0.76,-1.69375 c -0.49375,-1.04375 -1.33375,-2.7625 -2.015,-3.8775 0.0425,-0.52625 0.2,-1.44125 0.3225,-2.14 l 0.13375,-0.78125 c 0.3175,-1.915 1.03,-6.21 1.9725,-8.77125 0.22,0.0438 0.4575,0.1 0.67125,0.15125 0.44875,0.10875 0.9175,0.215 1.41625,0.2825 0.60875,0.0775 1.19875,0.115 1.77125,0.115 1.10875,0 2.19875,-0.13875 3.23875,-0.41125 2.20875,-0.5475 3.1275,-2.60125 4.01125,-4.585 0.0188,-0.0425 0.035,-0.0875 0.0625,-0.13125 0.0763,0.002 0.15625,0.006 0.235,0.006 0.49375,0 0.8825,-0.0737 1.12625,-0.1325 l 0.69875,-0.1775 0.58625,-0.43625 c 0.0175,-0.009 1.46,-1.0975 2.66,-1.78125 2.51875,-1.43125 2.83625,-3.84375 3.04375,-5.43875 0.0788,-0.565 0.145,-1.0975 0.29,-1.6725 0.0913,-0.37125 0.16,-0.6525 0.215,-0.8675 0.14,-0.1475 0.29125,-0.31875 0.475,-0.5425 1.24625,-1.49125 2.6275,-3.79 0.59,-6.7275"
         style="fill:#4f2683;fill-opacity:1;fill-rule:nonzero;stroke:none"
         id="path336" />
      <path
         d="m 159.47001,295.17378 0,-34.07875 19.41625,0 0,15.57 c 0,0 1.21625,0.60625 1.82,1.01 0.6075,0.4025 3.03,1.41875 4.24875,2.42875 1.21625,1.00875 1.61875,0.20375 2.635,0 1.005,-0.20375 1.81375,0.4075 3.03125,0.60875 1.21125,0.2 1.4175,-0.20125 2.63,-0.405 1.21125,-0.20375 0.8075,-0.40125 2.02625,0.405 1.21125,0.8075 0.80375,0.8075 2.2225,0.605 1.41125,-0.205 0.60125,-0.205 2.62125,0.81 2.02875,1.01 1.42,1.21375 3.44125,0 2.02625,-1.215 2.22,-1.82 4.04625,-0.81 1.82,1.01125 2.0275,0.81 3.64,1.62 1.76,0.88 1.47375,0.975 3.43875,1.4125 1.8275,0.40625 1.41875,-1.41375 1.8275,3.035 0.395,4.45125 0.195,5.46375 0.9975,7.68875 0.815,2.22125 -0.1875,3.03 1.0225,4.24125 1.21125,1.2175 1.01,0.60875 1.01,2.23375 0,1.61 -0.40625,1.815 0.40875,2.82625 0.8025,1.0075 0.8025,1.415 -0.2075,2.62625 -1.01125,1.21875 -0.80875,0.4125 -1.4125,2.83375 -0.60875,2.425 -0.20625,4.0475 -1.62375,4.85625 -1.4125,0.81 -3.0325,2.02625 -3.0325,2.02625 0,0 -0.80875,0.19875 -1.61875,-0.61375 -0.81,-0.805 -0.6025,-0.20375 -1.4125,1.2175 -0.80875,1.4125 -1.62375,4.045 -2.42875,4.245 -0.80875,0.20625 -2.02625,0.40625 -3.63375,0.20625 -1.62375,-0.20625 -4.4625,-1.62 -5.6725,1.2075 -1.205,2.835 -2.02,7.69 -2.4225,10.1175 -0.4075,2.42875 -0.80875,4.25 -0.2,5.0575 0.6025,0.81 2.00875,4.10874 2.00875,4.10874 -0.5675,0.79626 -0.59125,2.35751 -2.825,1.34626 -2.22125,-1.0125 -2.02,-1.21125 -3.23125,-0.81125 -1.21875,0.40875 -2.31625,-0.085 -3.43875,-1.00626 -1.49125,-1.21999 -2.0225,-0.81249 -3.0325,-1.00749 -1.01,-0.20875 -1.0175,0.0512 -2.22625,-2.22125 -1.8275,-3.43875 -2.23,-4.0625 -4.45125,-5.88 -2.2275,-1.81875 -2.62375,0.21125 -4.4425,-5.0475 -1.82625,-5.26376 -3.245,-7.88626 -4.86375,-9.7075 -1.6175,-1.825 -5.05875,-3.03625 -6.26375,0.19624 -1.2175,3.24126 -1.95375,4.40375 -3.77875,4.20125 -1.81375,-0.1975 -2.1625,-1.62999 -4.59,-2.235 -2.42875,-0.61 -3.37125,-3.17625 -4.99,-6.4125 -1.62125,-3.23749 -1.04125,-3.29875 -3.2325,-5.3375 -0.9375,-0.875 -3.28125,-1.94875 -3.75,-2.89125 -0.62125,-1.28999 -0.09,-1.47749 -1.3075,-2.8925 -1.21875,-1.41875 -2.02375,-2.43125 -2.83125,-3.64375 -0.80875,-1.21375 -2.14125,-3.74 -2.14125,-3.74 l 22.56875,0 z"
         style="fill:#ffc425;fill-opacity:1;fill-rule:nonzero;stroke:none"
         id="path338" />
      <path
         d="m 170.17064,275.9894 4.5825,0 c 3.665,0 3.665,1.86 3.665,2.46875 0,2.32875 -2.2275,2.675 -3.56125,2.675 l -4.68625,0 0,-5.14375 z m 47.36125,48.745 0,-1.8725 c -0.0312,-1.785 -1.31,-2.48875 -1.79625,-2.75375 -0.0787,-0.045 -0.2075,-0.11375 -0.23125,-0.13875 l -0.0263,0.004 -3.06,-6.625 c 0.59125,-0.4225 1.23,-1.13125 1.21125,-2.2925 l 0.0188,-1.92625 0.0112,-2.15875 -2.16,0 -6.8175,0 c -0.565,0 -1.82875,0.145 -2.54625,1.90375 l -0.68625,1.3 c -0.16875,-0.39375 -0.34,-0.78 -0.505,-1.16625 -0.395,-1.2475 -1.46125,-2.06875 -2.715,-2.06875 l -2.9025,0 1.0525,-2.09625 c 0.6275,-1.20125 1.12,-1.48 1.6375,-1.77 0.7,-0.38625 2.325,-1.2975 2.29375,-3.62375 l 0,-2.85125 0,-2.68125 -2.68375,0 -8.70375,0 -2.685,0 0.008,2.6875 0.004,2.9175 c 0,1.32375 0.6475,2.2025 1.2075,2.7475 l -3.83,7.27625 -3.4575,-6.9725 c 0.75,-0.52 1.7125,-1.45625 1.7125,-3.0725 l 0,-2.89625 0.004,-2.6875 -2.6825,0 -9.0325,0 0,-3.80625 5.465,0 c 0.525,0.0288 1.04,0.0412 1.54625,0.0412 8.7825,0 13.8175,-4.26875 13.8175,-11.71 0,-6.7075 -5.52125,-11.5775 -13.13125,-11.5775 l -22.555,0 -2.7225,0 0.0425,2.725 0.0425,2.405 c -0.01,1.605 1.14625,3.035 2.75875,3.455 0.425,0.1475 0.68125,0.255 0.8275,0.3275 0.006,0.0825 0.0175,0.1925 0.0175,0.34375 l 0,17.79625 c 0,0.095 -0.006,0.17625 -0.006,0.2475 -0.0288,0.0138 -0.06,0.0312 -0.0888,0.0487 l -0.1775,0.10125 c -0.6875,0.3775 -2.62375,1.43625 -2.62375,3.88 l 0.0175,2.10875 0.0262,2.65875 2.6525,0 10.03125,0 0.03,0 c 0.22,0.30125 0.59625,0.9925 0.9,1.56375 l 0.1225,0.22625 1.05875,2.215 c -0.06,-10e-4 -0.11625,-0.0275 -0.17625,-0.0275 l -6.81625,0 -1.92,0 0.0125,2.15625 0.0175,1.96875 c -0.0175,1.13125 0.62125,1.83125 1.21,2.24875 l -3.3075,6.6425 c -0.0363,0.0175 -0.12125,0.0462 -0.195,0.0838 -0.47375,0.2325 -1.9175,0.9525 -1.9175,2.82375 l 0,1.05125 0.835,0.64625 2.41125,1.87125 0.5825,0.4475 0.73625,0 3.56,0 2.14875,0 2.00375,0 9.3375,0 0.9975,0 c 0.69375,1.4125 1.61375,3.14 3.665,3.14 l 0.3275,0 c 2.03875,0 2.93375,-1.80875 3.57875,-3.14 l 1.0775,0 7.04875,0 2.15375,0 2.00375,0 8.265,0 2.14375,0 7.38375,0 2.1475,0 -0.005,-2.145 z"
         style="fill:#4f2683;fill-opacity:1;fill-rule:nonzero;stroke:none"
         id="path340" />
      <path
         d="m 168.02689,272.24015 7.2625,0 c 2.89625,0 6.3475,1.165 6.3475,5.14875 0,4.30125 -3.87625,5.35375 -6.245,5.35375 l -7.365,0 0,-10.5025 z m 30.135,26.17625 0,-2.89 -8.7025,0 0.005,2.915 c 0,1.42875 2.56875,1.13125 1.0475,3.72 l -6.4225,12.2 -6.05625,-12.2175 c -1.405,-2.80125 1.70375,-2.24125 1.70375,-3.71375 l 0,-2.90375 -10.01125,0 c -1.27375,-0.225 -1.69875,-0.77125 -1.69875,-2.4975 l 0,-6.67125 8.2175,0 c 7.1575,0.39625 12.6125,-1.96 12.6125,-8.98625 0,-5.4225 -4.5225,-8.9 -10.45125,-8.9 l -22.55125,0 0.035,2.4525 c -0.01,0.40125 0.36625,0.79125 0.83375,0.875 2.05875,0.72125 2.77125,1.1875 2.77125,3.25125 l 0,17.79875 c 0,1.89125 -0.355,1.99875 -1.62,2.72 -0.75375,0.41375 -1.27125,0.79375 -1.27125,1.555 l 0.0112,2.0875 10.23875,0 c 0.0238,0.006 0.0475,0.006 0.08,0.009 1.51875,0.0788 2.00625,1.1125 3.15625,3.24875 l 10.53125,22.04125 c 0.46125,0.9225 0.85875,1.755 1.32125,1.755 l 0.33375,0 c 0.39,0 0.85875,-0.995 1.23125,-1.755 l 11.01625,-21.94375 c 1.83125,-3.525 3.66375,-2.5225 3.63875,-4.15"
         style="fill:#ffffff;fill-opacity:1;fill-rule:nonzero;stroke:none"
         id="path342" />
      <path
         d="m 208.01051,322.36265 -0.006,1.87375 7.92,0 0,-1.87375 c -0.0188,-1.01625 -1.18125,-0.64375 -1.85,-2.02125 l 0,0.045 -3.56,-7.715 c -0.635,-1.40625 1.52,-1.13875 1.5075,-2.0875 l 0.0125,-1.9675 -6.57875,0 c -0.3825,0 -0.56625,0.32 -0.6925,0.6475 l -2.93625,5.65875 c -0.78625,-1.71625 -1.485,-3.6225 -2.36625,-5.69375 -0.0863,-0.335 -0.30625,-0.65125 -0.695,-0.65125 l -6.4675,0 0.0112,1.97125 c -0.0112,0.9525 2.14875,0.68375 1.51125,2.0875 l -3.56125,7.71625 c -0.64625,1.36625 -1.91,0.9275 -1.91,2.01 l 0.004,1.87375 5.97125,0 -0.0125,-1.87375 c 0,-1.05875 -1.51625,-0.5475 -0.845,-2.00375 l 0.29,-0.665 2.55125,-5.785 2.9325,6.45875 c 0.5725,1.4725 -0.81125,0.955 -0.81125,1.995 l 0,1.87375 7.74625,0 0,-1.87375 c -0.0238,-1.01625 -1.18,-0.64375 -1.85,-2.02125 -0.3275,-0.6775 -0.56125,-1.18625 -0.9025,-1.89375 l 2.3925,-4.6075 3.07125,6.595 c 0.56625,1.47 -0.8825,0.8875 -0.87625,1.9275"
         style="fill:#ffffff;fill-opacity:1;fill-rule:nonzero;stroke:none"
         id="path344" />
      <path
         d="m 164.19926,317.22415 1.745,-3.38375 1.73,3.3975 -3.475,-0.0138 z m 12.01,5.13875 c -0.0188,-1.01625 -1.1825,-0.645 -1.85125,-2.02125 -1.545,-3.17375 -3.1775,-6.6375 -5.08875,-11.1125 -0.145,-0.34125 -0.305,-0.6525 -0.68625,-0.6525 l -6.5975,0 0.005,1.9725 c -0.005,0.95125 2.1475,0.68375 1.515,2.0875 l -3.78,7.71625 c -0.645,1.365 -1.9175,0.9275 -1.9175,2.01 l 0.005,1.87375 5.97875,0 -0.0113,-1.87375 c 0,-1.05875 -1.5225,-0.5475 -0.8475,-2.00375 l 0.18625,-0.39375 5.75375,0 0.1825,0.4025 c 0.56625,1.4725 -0.815,0.955 -0.8025,1.995 l -0.0125,1.87375 7.96875,0 0,-1.87375 z"
         style="fill:#ffffff;fill-opacity:1;fill-rule:nonzero;stroke:none"
         id="path346" />
    </g>
  </g>
</svg>
