<?xml version="1.0" encoding="UTF-8" standalone="no"?>
<!-- Created with Inkscape (http://www.inkscape.org/) -->

<svg
   xmlns:dc="http://purl.org/dc/elements/1.1/"
   xmlns:cc="http://creativecommons.org/ns#"
   xmlns:rdf="http://www.w3.org/1999/02/22-rdf-syntax-ns#"
   xmlns:svg="http://www.w3.org/2000/svg"
   xmlns="http://www.w3.org/2000/svg"
   xmlns:sodipodi="http://sodipodi.sourceforge.net/DTD/sodipodi-0.dtd"
   xmlns:inkscape="http://www.inkscape.org/namespaces/inkscape"
   id="svg2"
   version="1.1"
   inkscape:version="0.91 r13725"
   xml:space="preserve"
   width="800"
   height="150"
   viewBox="0 0 799.99997 150"
   sodipodi:docname="twitter_ccsb_pvamu.svg"><metadata
     id="metadata8"><rdf:RDF><cc:Work
         rdf:about=""><dc:format>image/svg+xml</dc:format><dc:type
           rdf:resource="http://purl.org/dc/dcmitype/StillImage" /><dc:title></dc:title></cc:Work></rdf:RDF></metadata><defs
     id="defs6" /><sodipodi:namedview
     pagecolor="#ffffff"
     bordercolor="#666666"
     borderopacity="1"
     objecttolerance="10"
     gridtolerance="10"
     guidetolerance="10"
     inkscape:pageopacity="0"
     inkscape:pageshadow="2"
     inkscape:window-width="1288"
     inkscape:window-height="513"
     id="namedview4"
     showgrid="false"
     inkscape:zoom="0.31292113"
     inkscape:cx="349.92842"
     inkscape:cy="-15.508987"
     inkscape:window-x="0"
     inkscape:window-y="0"
     inkscape:window-maximized="0"
     inkscape:current-layer="g16" /><g
     id="g10"
     inkscape:groupmode="layer"
     inkscape:label="ink_ext_XXXXXX"
     transform="matrix(1.25,0,0,-1.25,0,150)"><g
       id="g12"
       transform="scale(0.1,0.1)"><path
         d="m 649.12184,223.96998 c 331.79997,0 513.24996,274.887 513.24996,513.249 0,7.81 -0.16,15.58 -0.52,23.31 35.22,25.46 65.8401,57.24 89.99,93.41 -32.3199,-14.36 -67.11,-24.03 -103.6,-28.4 37.25,22.33 65.8501,57.67003 79.3301,99.79003 -34.8601,-20.67 -73.4501,-35.69 -114.5401,-43.79003 -32.92,35.06003 -79.8,56.99003 -131.66999,56.99003 -99.63997,0 -180.41997,-80.78003 -180.41997,-180.37003 0,-14.16 1.59,-27.92 4.67,-41.13 -149.91,7.54 -282.85,79.32 -371.82,188.46003 -15.5,-26.64003 -24.43,-57.62003 -24.43,-90.66003 0,-62.58 31.85,-117.835 80.28,-150.155 -29.59,0.91 -57.39,9.046 -81.7,22.57 -0.04,-0.754 -0.04,-1.512 -0.04,-2.305 0,-87.371 62.19,-160.308 144.72,-176.844 -15.15,-4.125 -31.09,-6.347 -47.55,-6.347 -11.63,0 -22.93,1.156 -33.92,3.254 22.97,-71.664 89.56,-123.825 168.53,-125.293 -61.76,-48.391 -139.53,-77.219 -224.05,-77.219 -14.55,0 -28.91,0.828 -43.03,2.5 79.84,-51.16 174.63,-81.02 276.52,-81.02"
         style="fill:#569cda;fill-opacity:1;fill-rule:nonzero;stroke:none"
         id="path14"
         inkscape:connector-curvature="0" /><g
         id="g16"
         transform="scale(10,10)"><text
           transform="scale(1,-1)"
           style="font-variant:normal;font-weight:bold;font-size:99.36000061px;line-height:125%;font-family:'Helvetica Neue';-inkscape-font-specification:HelveticaNeue-Bold;writing-mode:lr-tb;fill:#191819;fill-opacity:1;fill-rule:nonzero;stroke:none"
           id="text18"
           sodipodi:linespacing="125%"
           x="143.22319"
           y="-33.663788"><tspan
             x="143.22319"
             y="-33.663788"
             sodipodi:role="line"
             id="tspan20"
             style="font-style:normal;font-variant:normal;font-weight:normal;font-stretch:normal;font-size:72px;line-height:125%;font-family:'Helvetica Neue';-inkscape-font-specification:'Helvetica Neue, Normal';text-align:start;writing-mode:lr-tb;text-anchor:start">@ccsb_pvamu</tspan></text>
</g></g></g></svg>